<mxfile host="app.diagrams.net" modified="2023-07-29T00:55:35.625Z" agent="Mozilla/5.0 (Macintosh; Intel Mac OS X 10_15_7) AppleWebKit/537.36 (KHTML, like Gecko) Chrome/115.0.0.0 Safari/537.36" etag="5kjX25utHKzC_OVrrrQJ" version="21.6.5" type="device">
  <diagram name="Page-1" id="MZt2PC7ZG8WfLr_CgieO">
    <mxGraphModel dx="1562" dy="862" grid="1" gridSize="10" guides="1" tooltips="1" connect="1" arrows="1" fold="1" page="1" pageScale="1" pageWidth="827" pageHeight="1169" math="0" shadow="0">
      <root>
        <mxCell id="0" />
        <mxCell id="1" parent="0" />
        <mxCell id="Nodpg1rB1iGRVlEqTx-I-13" style="edgeStyle=orthogonalEdgeStyle;rounded=0;orthogonalLoop=1;jettySize=auto;html=1;" edge="1" parent="1" source="Nodpg1rB1iGRVlEqTx-I-2" target="Nodpg1rB1iGRVlEqTx-I-12">
          <mxGeometry relative="1" as="geometry" />
        </mxCell>
        <mxCell id="Nodpg1rB1iGRVlEqTx-I-2" value="routes&lt;br&gt;filter routes" style="rounded=1;whiteSpace=wrap;html=1;" vertex="1" parent="1">
          <mxGeometry x="510" y="330" width="120" height="60" as="geometry" />
        </mxCell>
        <mxCell id="Nodpg1rB1iGRVlEqTx-I-8" style="edgeStyle=orthogonalEdgeStyle;rounded=0;orthogonalLoop=1;jettySize=auto;html=1;" edge="1" parent="1" source="Nodpg1rB1iGRVlEqTx-I-3" target="Nodpg1rB1iGRVlEqTx-I-2">
          <mxGeometry relative="1" as="geometry" />
        </mxCell>
        <mxCell id="Nodpg1rB1iGRVlEqTx-I-3" value="Students" style="shape=umlActor;verticalLabelPosition=bottom;verticalAlign=top;html=1;outlineConnect=0;" vertex="1" parent="1">
          <mxGeometry x="730" y="330" width="30" height="60" as="geometry" />
        </mxCell>
        <mxCell id="Nodpg1rB1iGRVlEqTx-I-10" value="Coder Academy" style="text;html=1;strokeColor=none;fillColor=none;align=center;verticalAlign=middle;whiteSpace=wrap;rounded=0;" vertex="1" parent="1">
          <mxGeometry x="400" y="170" width="60" height="30" as="geometry" />
        </mxCell>
        <mxCell id="Nodpg1rB1iGRVlEqTx-I-11" value="&lt;h1&gt;Endpoints&lt;/h1&gt;&lt;div&gt;/students&lt;/div&gt;&lt;div&gt;/teachers&lt;/div&gt;&lt;div&gt;/students/create&lt;/div&gt;" style="text;html=1;strokeColor=none;fillColor=none;spacing=5;spacingTop=-20;whiteSpace=wrap;overflow=hidden;rounded=0;" vertex="1" parent="1">
          <mxGeometry x="440" y="450" width="190" height="120" as="geometry" />
        </mxCell>
        <mxCell id="Nodpg1rB1iGRVlEqTx-I-16" style="edgeStyle=orthogonalEdgeStyle;rounded=0;orthogonalLoop=1;jettySize=auto;html=1;entryX=1;entryY=0.5;entryDx=0;entryDy=0;" edge="1" parent="1" source="Nodpg1rB1iGRVlEqTx-I-12" target="Nodpg1rB1iGRVlEqTx-I-15">
          <mxGeometry relative="1" as="geometry" />
        </mxCell>
        <mxCell id="Nodpg1rB1iGRVlEqTx-I-22" style="edgeStyle=orthogonalEdgeStyle;rounded=0;orthogonalLoop=1;jettySize=auto;html=1;entryX=0.983;entryY=0.633;entryDx=0;entryDy=0;entryPerimeter=0;" edge="1" parent="1" source="Nodpg1rB1iGRVlEqTx-I-12" target="Nodpg1rB1iGRVlEqTx-I-20">
          <mxGeometry relative="1" as="geometry" />
        </mxCell>
        <mxCell id="Nodpg1rB1iGRVlEqTx-I-12" value="Controller&lt;br&gt;responsible of routes" style="rounded=1;whiteSpace=wrap;html=1;" vertex="1" parent="1">
          <mxGeometry x="294" y="330" width="120" height="60" as="geometry" />
        </mxCell>
        <mxCell id="Nodpg1rB1iGRVlEqTx-I-19" style="edgeStyle=orthogonalEdgeStyle;rounded=0;orthogonalLoop=1;jettySize=auto;html=1;exitX=0.25;exitY=0;exitDx=0;exitDy=0;" edge="1" parent="1" source="Nodpg1rB1iGRVlEqTx-I-15" target="Nodpg1rB1iGRVlEqTx-I-17">
          <mxGeometry relative="1" as="geometry">
            <Array as="points">
              <mxPoint x="110" y="330" />
            </Array>
          </mxGeometry>
        </mxCell>
        <mxCell id="Nodpg1rB1iGRVlEqTx-I-21" style="edgeStyle=orthogonalEdgeStyle;rounded=0;orthogonalLoop=1;jettySize=auto;html=1;" edge="1" parent="1" source="Nodpg1rB1iGRVlEqTx-I-15" target="Nodpg1rB1iGRVlEqTx-I-12">
          <mxGeometry relative="1" as="geometry" />
        </mxCell>
        <mxCell id="Nodpg1rB1iGRVlEqTx-I-15" value="Model" style="rounded=1;whiteSpace=wrap;html=1;" vertex="1" parent="1">
          <mxGeometry x="50" y="330" width="120" height="60" as="geometry" />
        </mxCell>
        <mxCell id="Nodpg1rB1iGRVlEqTx-I-18" style="edgeStyle=orthogonalEdgeStyle;rounded=0;orthogonalLoop=1;jettySize=auto;html=1;" edge="1" parent="1" source="Nodpg1rB1iGRVlEqTx-I-17" target="Nodpg1rB1iGRVlEqTx-I-15">
          <mxGeometry relative="1" as="geometry" />
        </mxCell>
        <mxCell id="Nodpg1rB1iGRVlEqTx-I-17" value="DB" style="shape=cylinder3;whiteSpace=wrap;html=1;boundedLbl=1;backgroundOutline=1;size=15;" vertex="1" parent="1">
          <mxGeometry x="80" y="180" width="60" height="70" as="geometry" />
        </mxCell>
        <mxCell id="Nodpg1rB1iGRVlEqTx-I-20" value="View" style="rounded=1;whiteSpace=wrap;html=1;" vertex="1" parent="1">
          <mxGeometry x="130" y="440" width="120" height="60" as="geometry" />
        </mxCell>
      </root>
    </mxGraphModel>
  </diagram>
</mxfile>
